<mxfile host="app.diagrams.net" modified="2021-04-27T08:17:06.443Z" agent="5.0 (X11; Linux x86_64) AppleWebKit/537.36 (KHTML, like Gecko) Chrome/88.0.4324.150 Safari/537.36" etag="q_Ovh3vT2cUzjaIXYqDY" version="14.6.6" type="github">
  <diagram id="lx2VZxClAH5Ipf0R4cPy" name="Page-1">
    <mxGraphModel dx="887" dy="1086" grid="1" gridSize="10" guides="1" tooltips="1" connect="1" arrows="1" fold="1" page="1" pageScale="1" pageWidth="827" pageHeight="1169" math="0" shadow="0">
      <root>
        <mxCell id="0" />
        <mxCell id="1" parent="0" />
        <mxCell id="TiNnpoJ9Hiv0gkbN6FDI-1" value="&lt;span style=&quot;color: rgb(51 , 51 , 51) ; font-family: &amp;#34;helvetica neue&amp;#34; , &amp;#34;helvetica&amp;#34; , &amp;#34;arial&amp;#34; , &amp;#34;hiragino sans gb&amp;#34; , &amp;#34;hiragino sans gb w3&amp;#34; , &amp;#34;microsoft yahei ui&amp;#34; , &amp;#34;microsoft yahei&amp;#34; , sans-serif&quot;&gt;&lt;b&gt;&lt;font style=&quot;font-size: 16px&quot;&gt;Unified access portal&lt;/font&gt;&lt;/b&gt;&lt;/span&gt;" style="rounded=0;whiteSpace=wrap;html=1;fillColor=#fff2cc;strokeColor=#d6b656;" vertex="1" parent="1">
          <mxGeometry x="40" y="160" width="280" height="40" as="geometry" />
        </mxCell>
        <mxCell id="TiNnpoJ9Hiv0gkbN6FDI-2" value="&lt;span style=&quot;color: rgb(51 , 51 , 51) ; font-family: &amp;#34;helvetica neue&amp;#34; , &amp;#34;helvetica&amp;#34; , &amp;#34;arial&amp;#34; , &amp;#34;hiragino sans gb&amp;#34; , &amp;#34;hiragino sans gb w3&amp;#34; , &amp;#34;microsoft yahei ui&amp;#34; , &amp;#34;microsoft yahei&amp;#34; , sans-serif&quot;&gt;&lt;b&gt;&lt;font style=&quot;font-size: 15px&quot;&gt;Multi-type secondary portal&lt;/font&gt;&lt;/b&gt;&lt;/span&gt;" style="rounded=0;whiteSpace=wrap;html=1;fillColor=#fff2cc;strokeColor=#d6b656;" vertex="1" parent="1">
          <mxGeometry x="40" y="240" width="130" height="40" as="geometry" />
        </mxCell>
        <mxCell id="TiNnpoJ9Hiv0gkbN6FDI-3" value="&lt;span style=&quot;color: rgb(51 , 51 , 51) ; font-family: &amp;#34;helvetica neue&amp;#34; , &amp;#34;helvetica&amp;#34; , &amp;#34;arial&amp;#34; , &amp;#34;hiragino sans gb&amp;#34; , &amp;#34;hiragino sans gb w3&amp;#34; , &amp;#34;microsoft yahei ui&amp;#34; , &amp;#34;microsoft yahei&amp;#34; , sans-serif&quot;&gt;&lt;b&gt;&lt;font style=&quot;font-size: 16px&quot;&gt;Service Association Management System&lt;/font&gt;&lt;/b&gt;&lt;/span&gt;" style="rounded=0;whiteSpace=wrap;html=1;fillColor=#fff2cc;strokeColor=#d6b656;" vertex="1" parent="1">
          <mxGeometry x="40" y="320" width="280" height="40" as="geometry" />
        </mxCell>
        <mxCell id="TiNnpoJ9Hiv0gkbN6FDI-6" value="" style="endArrow=classic;startArrow=classic;html=1;strokeWidth=3;" edge="1" parent="1">
          <mxGeometry width="50" height="50" relative="1" as="geometry">
            <mxPoint x="80" y="240" as="sourcePoint" />
            <mxPoint x="80" y="200" as="targetPoint" />
            <Array as="points">
              <mxPoint x="80" y="230" />
            </Array>
          </mxGeometry>
        </mxCell>
        <mxCell id="TiNnpoJ9Hiv0gkbN6FDI-7" value="" style="endArrow=classic;html=1;strokeWidth=3;" edge="1" parent="1">
          <mxGeometry width="50" height="50" relative="1" as="geometry">
            <mxPoint x="80" y="280" as="sourcePoint" />
            <mxPoint x="80" y="320" as="targetPoint" />
            <Array as="points">
              <mxPoint x="80" y="300" />
            </Array>
          </mxGeometry>
        </mxCell>
        <mxCell id="TiNnpoJ9Hiv0gkbN6FDI-8" value="" style="endArrow=classic;html=1;entryX=0.75;entryY=1;entryDx=0;entryDy=0;exitX=0.75;exitY=0;exitDx=0;exitDy=0;strokeWidth=3;" edge="1" parent="1" source="TiNnpoJ9Hiv0gkbN6FDI-3" target="TiNnpoJ9Hiv0gkbN6FDI-1">
          <mxGeometry width="50" height="50" relative="1" as="geometry">
            <mxPoint x="210" y="410" as="sourcePoint" />
            <mxPoint x="260" y="360" as="targetPoint" />
          </mxGeometry>
        </mxCell>
        <mxCell id="TiNnpoJ9Hiv0gkbN6FDI-9" value="&lt;b&gt;&lt;font style=&quot;font-size: 16px&quot;&gt;Water recycling service&lt;/font&gt;&lt;/b&gt;" style="rounded=1;whiteSpace=wrap;html=1;fillColor=#dae8fc;strokeColor=#6c8ebf;" vertex="1" parent="1">
          <mxGeometry x="420" y="222.5" width="320" height="35" as="geometry" />
        </mxCell>
        <mxCell id="TiNnpoJ9Hiv0gkbN6FDI-10" value="&lt;b&gt;&lt;font style=&quot;font-size: 16px&quot;&gt;Pollution source monitoring services&lt;/font&gt;&lt;/b&gt;" style="rounded=1;whiteSpace=wrap;html=1;fillColor=#dae8fc;strokeColor=#6c8ebf;" vertex="1" parent="1">
          <mxGeometry x="420" y="272.5" width="320" height="35" as="geometry" />
        </mxCell>
        <mxCell id="TiNnpoJ9Hiv0gkbN6FDI-11" value="&lt;b&gt;&lt;font style=&quot;font-size: 16px&quot;&gt;Water environment monitoring&lt;/font&gt;&lt;/b&gt;" style="rounded=1;whiteSpace=wrap;html=1;fillColor=#dae8fc;strokeColor=#6c8ebf;" vertex="1" parent="1">
          <mxGeometry x="420" y="322.5" width="320" height="35" as="geometry" />
        </mxCell>
        <mxCell id="TiNnpoJ9Hiv0gkbN6FDI-14" value="" style="shape=curlyBracket;whiteSpace=wrap;html=1;rounded=1;size=0.5;fontStyle=1;strokeWidth=2;" vertex="1" parent="1">
          <mxGeometry x="390" y="220" width="20" height="140" as="geometry" />
        </mxCell>
        <mxCell id="TiNnpoJ9Hiv0gkbN6FDI-15" value="" style="edgeStyle=elbowEdgeStyle;elbow=horizontal;endArrow=classic;html=1;strokeWidth=3;fillColor=#f8cecc;strokeColor=#b85450;" edge="1" parent="1">
          <mxGeometry width="50" height="50" relative="1" as="geometry">
            <mxPoint x="330" y="340" as="sourcePoint" />
            <mxPoint x="380" y="290" as="targetPoint" />
          </mxGeometry>
        </mxCell>
      </root>
    </mxGraphModel>
  </diagram>
</mxfile>
